<svg width="306" height="83" xmlns="http://www.w3.org/2000/svg" xmlns:xlink="http://www.w3.org/1999/xlink" xml:space="preserve" overflow="hidden"><g transform="translate(-3611 -340)"><path d="M3612 379.5C3612 363.76 3642.67 351 3680.5 351 3718.33 351 3749 363.76 3749 379.5 3749 395.24 3718.33 408 3680.5 408 3642.67 408 3612 395.24 3612 379.5Z" stroke="#000000" stroke-width="2.29167" stroke-miterlimit="8" fill="#FFFFFF" fill-rule="evenodd"/><text fill="#FF0000" font-family="Arial,Arial_MSFontService,sans-serif" font-weight="700" font-size="14" transform="matrix(1 0 0 1 3647.2 369)">А</text><text fill="#FF0000" font-family="Arial,Arial_MSFontService,sans-serif" font-weight="700" font-size="14" transform="matrix(1 0 0 1 3647.3 386)">И</text><text fill="#4EA72E" font-family="Arial,Arial_MSFontService,sans-serif" font-weight="700" font-size="14" transform="matrix(1 0 0 1 3674.42 370)">Н</text><text fill="#4EA72E" font-family="Arial,Arial_MSFontService,sans-serif" font-weight="700" font-size="14" transform="matrix(1 0 0 1 3675.09 387)">К</text><text fill="#0070C0" font-family="Arial,Arial_MSFontService,sans-serif" font-weight="700" font-size="14" transform="matrix(1 0 0 1 3702.4 371)">Н</text><text fill="#0070C0" font-family="Arial,Arial_MSFontService,sans-serif" font-weight="700" font-size="14" transform="matrix(1 0 0 1 3702.22 387)">И</text><text font-family="Arial,Arial_MSFontService,sans-serif" font-weight="700" font-size="14" transform="matrix(1 0 0 1 3674.23 403)">Т</text></g></svg>