<svg width="2495" height="1191" xmlns="http://www.w3.org/2000/svg" xmlns:xlink="http://www.w3.org/1999/xlink" xml:space="preserve" overflow="hidden"><g transform="translate(-953 -632)"><path d="M971.5 1172.5C971.5 884.207 1521.74 650.5 2200.5 650.5 2879.26 650.5 3429.5 884.207 3429.5 1172.5 3429.5 1460.79 2879.26 1694.5 2200.5 1694.5 1521.74 1694.5 971.5 1460.79 971.5 1172.5Z" stroke="#000000" stroke-width="36.6667" stroke-miterlimit="8" fill="#FFFFFF" fill-rule="evenodd"/><text fill="#FF0000" font-family="Arial,Arial_MSFontService,sans-serif" font-weight="700" font-size="248" transform="matrix(1 0 0 1 1559.25 993)">А</text><text fill="#FF0000" font-family="Arial,Arial_MSFontService,sans-serif" font-weight="700" font-size="248" transform="matrix(1 0 0 1 1562.46 1299)">И</text><text fill="#4EA72E" font-family="Arial,Arial_MSFontService,sans-serif" font-weight="700" font-size="248" transform="matrix(1 0 0 1 2121.07 997)">Н</text><text fill="#4EA72E" font-family="Arial,Arial_MSFontService,sans-serif" font-weight="700" font-size="248" transform="matrix(1 0 0 1 2128.01 1299)">К</text><text fill="#0070C0" font-family="Arial,Arial_MSFontService,sans-serif" font-weight="700" font-size="248" transform="matrix(1 0 0 1 2626.94 997)">Н</text><text fill="#0070C0" font-family="Arial,Arial_MSFontService,sans-serif" font-weight="700" font-size="248" transform="matrix(1 0 0 1 2633.75 1299)">И</text><text font-family="Arial,Arial_MSFontService,sans-serif" font-weight="700" font-size="248" transform="matrix(1 0 0 1 2134.89 1618)">Т</text></g></svg>