<svg xmlns="http://www.w3.org/2000/svg" width="2495" height="1191" xml:space="preserve" overflow="hidden"><rect x="0" y="0" width="100%" height="100%" fill="white" /><g transform="translate(-953 -632)"><path d="M971.5 1172.5C971.5 884.207 1521.74 650.5 2200.5 650.5 2879.26 650.5 3429.5 884.207 3429.5 1172.5 3429.5 1460.79 2879.26 1694.5 2200.5 1694.5 1521.74 1694.5 971.5 1460.79 971.5 1172.5Z" stroke="#000000" stroke-width="36.6667" stroke-miterlimit="8" fill="none" fill-rule="evenodd" /><text fill="#FF0000" font-family="Arial,Arial_MSFontService,sans-serif" font-weight="700" font-size="248" transform="matrix(1 0 0 1 1559.25 993)">&#1040;</text><text fill="#FF0000" font-family="Arial,Arial_MSFontService,sans-serif" font-weight="700" font-size="248" transform="matrix(1 0 0 1 1562.46 1299)">&#1048;</text><text fill="#4EA72E" font-family="Arial,Arial_MSFontService,sans-serif" font-weight="700" font-size="248" transform="matrix(1 0 0 1 2121.07 997)">&#1053;</text><text fill="#4EA72E" font-family="Arial,Arial_MSFontService,sans-serif" font-weight="700" font-size="248" transform="matrix(1 0 0 1 2128.01 1299)">&#1050;</text><text fill="#0070C0" font-family="Arial,Arial_MSFontService,sans-serif" font-weight="700" font-size="248" transform="matrix(1 0 0 1 2626.94 997)">&#1053;</text><text fill="#0070C0" font-family="Arial,Arial_MSFontService,sans-serif" font-weight="700" font-size="248" transform="matrix(1 0 0 1 2633.75 1299)">&#1048;</text><text font-family="Arial,Arial_MSFontService,sans-serif" font-weight="700" font-size="248" transform="matrix(1 0 0 1 2134.89 1618)">&#1058;</text></g></svg>